<?xml version="1.0" encoding="UTF-8"?>
<svg id="_レイヤー_1" data-name=" レイヤー 1" xmlns="http://www.w3.org/2000/svg" xmlns:xlink="http://www.w3.org/1999/xlink" viewBox="0 0 298 299">
  <defs>
    <style>
      .cls-1 {
        font-size: 23.75px;
      }

      .cls-1, .cls-2, .cls-3, .cls-4, .cls-5, .cls-6, .cls-7, .cls-8, .cls-9, .cls-10, .cls-11, .cls-12, .cls-13, .cls-14, .cls-15, .cls-16, .cls-17, .cls-18, .cls-19, .cls-20 {
        isolation: isolate;
      }

      .cls-1, .cls-2, .cls-3, .cls-4, .cls-5, .cls-6, .cls-7, .cls-8, .cls-9, .cls-10, .cls-11, .cls-12, .cls-13, .cls-14, .cls-15, .cls-16, .cls-18, .cls-19, .cls-20 {
        font-family: Rockwell-Regular, Rockwell;
      }

      .cls-1, .cls-2, .cls-3, .cls-4, .cls-8, .cls-10, .cls-11, .cls-12, .cls-16, .cls-18, .cls-19, .cls-20 {
        fill: #476b6b;
      }

      .cls-2 {
        font-size: 23.75px;
      }

      .cls-3 {
        font-size: 23.75px;
      }

      .cls-4 {
        font-size: 23.75px;
      }

      .cls-5 {
        font-size: 23.75px;
      }

      .cls-5, .cls-6, .cls-7, .cls-9, .cls-13, .cls-14, .cls-15 {
        fill: #fff;
      }

      .cls-6 {
        font-size: 23.75px;
      }

      .cls-7 {
        font-size: 23.75px;
      }

      .cls-8 {
        font-size: 23.75px;
      }

      .cls-9 {
        font-size: 23.75px;
      }

      .cls-10 {
        font-size: 23.75px;
      }

      .cls-11 {
        font-size: 23.75px;
      }

      .cls-12, .cls-14 {
        font-size: 23.75px;
      }

      .cls-13 {
        font-size: 23.75px;
      }

      .cls-15 {
        font-size: 23.75px;
      }

      .cls-16 {
        font-size: 23.75px;
      }

      .cls-17 {
        opacity: .5;
      }

      .cls-18 {
        font-size: 23.75px;
      }

      .cls-19 {
        font-size: 23.75px;
      }

      .cls-20 {
        font-size: 23.75px;
      }
    </style>
  </defs>
  <image class="cls-17" width="35" height="43" transform="translate(111)" xlink:href="2B2B0528FDF46C95.png"/>
  <text class="cls-4" transform="translate(117.41 27.08) rotate(-9.12)"><tspan x="0" y="0">H</tspan></text>
  <image class="cls-17" width="23" height="41" transform="translate(130)" xlink:href="2B2B0528FDF46C97.png"/>
  <text class="cls-18" transform="translate(134.97 24.51) rotate(-3.2)"><tspan x="0" y="0">I</tspan></text>
  <image class="cls-17" width="33" height="41" transform="translate(139)" xlink:href="2B2B0528FDF46C92.png"/>
  <text class="cls-12" transform="translate(142.51 23.79) rotate(2.78)"><tspan x="0" y="0">D</tspan></text>
  <image class="cls-17" width="34" height="43" transform="translate(156 1)" xlink:href="2B2B0528FDF46C93.png"/>
  <text class="cls-12" transform="translate(160.71 24.73) rotate(10.6)"><tspan x="0" y="0">E</tspan></text>
  <image class="cls-17" width="41" height="46" transform="translate(170 4)" xlink:href="2B2B0528FDF46C9D.png"/>
  <text class="cls-16" transform="translate(175.7 27.32) rotate(18.87)"><tspan x="0" y="0">O</tspan></text>
  <image class="cls-17" width="39" height="44" transform="translate(193 15)" xlink:href="2B2B0528FDF46C9F.png"/>
  <text class="cls-12" transform="translate(200.11 36.57) rotate(29.6)"><tspan x="0" y="0">S</tspan></text>
  <image class="cls-17" width="45" height="46" transform="translate(204 23)" xlink:href="2B2B0528FDF46C90.png"/>
  <text class="cls-19" transform="translate(211.66 42.88) rotate(37.03)"><tspan x="0" y="0">A</tspan></text>
  <image class="cls-17" width="44" height="44" transform="translate(218 36)" xlink:href="2B2B0528FDF46C91.png"/>
  <text class="cls-3" transform="translate(226.47 54.13) rotate(45.02)"><tspan x="0" y="0">K</tspan></text>
  <image class="cls-17" width="45" height="44" transform="translate(229 49)" xlink:href="2B2B0528FDF46C96.png"/>
  <text class="cls-12" transform="translate(237.64 65.19) rotate(52.71)"><tspan x="0" y="0">U</tspan></text>
  <image class="cls-17" width="44" height="41" transform="translate(239 65)" xlink:href="3D37BEECB453B19E.png"/>
  <text class="cls-12" transform="translate(248.06 78.93) rotate(60.31)"><tspan x="0" y="0">R</tspan></text>
  <image class="cls-17" width="45" height="41" transform="translate(246 81)" xlink:href="3D37BEECB453B199.png"/>
  <text class="cls-12" transform="translate(255.74 92.07) rotate(68.26)"><tspan x="0" y="0">A</tspan></text>
  <image class="cls-17" width="45" height="39" transform="translate(252 101)" xlink:href="3D37BEECB453B19A.png"/>
  <text class="cls-11" transform="translate(262.7 109.26) rotate(77.33)"><tspan x="0" y="0">G</tspan></text>
  <image class="cls-17" width="42" height="24" transform="translate(256 123)" xlink:href="3D37BEECB453B198.png"/>
  <text class="cls-12" transform="translate(266.77 128.84) rotate(83.79)"><tspan x="0" y="0">I</tspan></text>
  <image class="cls-17" width="42" height="30" transform="translate(256 145)" xlink:href="3D37BEECB453B196.png"/>
  <text class="cls-12" transform="translate(268.11 148.88) rotate(94.66)"><tspan x="0" y="0">P</tspan></text>
  <image class="cls-17" width="45" height="39" transform="translate(252 158)" xlink:href="3D37BEECB453B189.png"/>
  <text class="cls-12" transform="translate(267.21 162.98) rotate(102.63)"><tspan x="0" y="0">O</tspan></text>
  <image class="cls-17" width="44" height="38" transform="translate(247 176)" xlink:href="3D37BEECB453B18A.png"/>
  <text class="cls-12" transform="translate(262.74 182.32) rotate(110.9)"><tspan x="0" y="0">R</tspan></text>
  <image class="cls-17" width="45" height="40" transform="translate(240 190)" xlink:href="3D37BEECB453B188.png"/>
  <text class="cls-12" transform="translate(257.32 196.61) rotate(118.09)"><tspan x="0" y="0">T</tspan></text>
  <image class="cls-17" width="44" height="40" transform="translate(233 203)" xlink:href="3D37BEECB453B18E.png"/>
  <text class="cls-2" transform="translate(250.14 210.04) rotate(124.95)"><tspan x="0" y="0">F</tspan></text>
  <image class="cls-17" width="47" height="47" transform="translate(220 213)" xlink:href="3D37BEECB453B18B.png"/>
  <text class="cls-1" transform="translate(242.33 221.63) rotate(132.84)"><tspan x="0" y="0">O</tspan></text>
  <image class="cls-17" width="41" height="43" transform="translate(210 227)" xlink:href="3D37BEECB453B1AD.png"/>
  <text class="cls-8" transform="translate(228.69 236.08) rotate(140.6)"><tspan x="0" y="0">L</tspan></text>
  <image class="cls-17" width="35" height="41" transform="translate(204 235)" xlink:href="3D37BEECB453B1AF.png"/>
  <text class="cls-20" transform="translate(218.1 244.63) rotate(145.56)"><tspan x="0" y="0">I</tspan></text>
  <image class="cls-17" width="44" height="46" transform="translate(187 240)" xlink:href="3D37BEECB453B1AC.png"/>
  <text class="cls-10" transform="translate(212.1 249.2) rotate(152.01)"><tspan x="0" y="0">O</tspan></text>
  <image class="cls-17" width="36" height="44" transform="translate(154 254)" xlink:href="3D37BEECB453B1AB.png"/>
  <text class="cls-14" transform="translate(176.88 264.58) rotate(169.65)"><tspan x="0" y="0">H</tspan></text>
  <image class="cls-17" width="23" height="41" transform="translate(147 257)" xlink:href="3D37BEECB453B1A5.png"/>
  <text class="cls-14" transform="translate(159.38 267.53) rotate(175.58)"><tspan x="0" y="0">I</tspan></text>
  <image class="cls-17" width="33" height="42" transform="translate(129 257)" xlink:href="3D37BEECB453B1A7.png"/>
  <text class="cls-9" transform="translate(151.88 268.41) rotate(-178.45)"><tspan x="0" y="0">D</tspan></text>
  <image class="cls-17" width="33" height="43" transform="translate(111 255)" xlink:href="3D37BEECB453B1A4.png"/>
  <text class="cls-14" transform="translate(133.67 267.86) rotate(-170.65)"><tspan x="0" y="0">E</tspan></text>
  <image class="cls-17" width="41" height="46" transform="translate(89 249)" xlink:href="3D37BEECB453B1DB.png"/>
  <text class="cls-14" transform="translate(118.62 265.59) rotate(-162.38)"><tspan x="0" y="0">O</tspan></text>
  <image class="cls-17" width="38" height="44" transform="translate(69 241)" xlink:href="3D37BEECB453B1DD.png"/>
  <text class="cls-7" transform="translate(94.02 256.89) rotate(-151.65)"><tspan x="0" y="0">S</tspan></text>
  <image class="cls-17" width="45" height="47" transform="translate(51 230)" xlink:href="3D37BEECB453B1DF.png"/>
  <text class="cls-14" transform="translate(82.33 250.82) rotate(-144.21)"><tspan x="0" y="0">A</tspan></text>
  <image class="cls-17" width="44" height="44" transform="translate(38 220)" xlink:href="3D37BEECB453B1C0.png"/>
  <text class="cls-14" transform="translate(67.29 239.9) rotate(-136.22)"><tspan x="0" y="0">K</tspan></text>
  <image class="cls-17" width="46" height="44" transform="translate(25 207)" xlink:href="3D37BEECB453B1FF.png"/>
  <text class="cls-5" transform="translate(55.89 229.09) rotate(-128.54)"><tspan x="0" y="0">U</tspan></text>
  <image class="cls-17" width="45" height="41" transform="translate(16 195)" xlink:href="3D37BEECB453B1C1.png"/>
  <text class="cls-14" transform="translate(45.16 215.58) rotate(-120.94)"><tspan x="0" y="0">R</tspan></text>
  <image class="cls-17" width="46" height="41" transform="translate(7 179)" xlink:href="3D37BEECB453B1C3.png"/>
  <text class="cls-15" transform="translate(37.2 202.6) rotate(-112.99)"><tspan x="0" y="0">A</tspan></text>
  <image class="cls-17" width="45" height="39" transform="translate(1 161)" xlink:href="3D37BEECB453B1C6.png"/>
  <text class="cls-14" transform="translate(29.86 185.57) rotate(-103.93)"><tspan x="0" y="0">G</tspan></text>
  <image class="cls-17" width="42" height="24" transform="translate(0 154)" xlink:href="3D37BEECB453B1C7.png"/>
  <text class="cls-6" transform="translate(25.37 166.08) rotate(-97.45)"><tspan x="0" y="0">I</tspan></text>
  <image class="cls-17" width="41" height="29" transform="translate(0 127)" xlink:href="3D37BEECB453B1C2.png"/>
  <text class="cls-14" transform="translate(23.6 146.08) rotate(-86.58)"><tspan x="0" y="0">P</tspan></text>
  <image class="cls-17" width="45" height="39" transform="translate(0 104)" xlink:href="3D37BEECB453B1CD.png"/>
  <text class="cls-14" transform="translate(24.2 131.95) rotate(-78.61)"><tspan x="0" y="0">O</tspan></text>
  <image class="cls-17" width="45" height="37" transform="translate(5 87)" xlink:href="3D37BEECB453B1CE.png"/>
  <text class="cls-14" transform="translate(28.24 112.51) rotate(-70.34)"><tspan x="0" y="0">R</tspan></text>
  <image class="cls-17" width="45" height="40" transform="translate(11 71)" xlink:href="3D37BEECB453B1CF.png"/>
  <text class="cls-14" transform="translate(33.35 98.13) rotate(-63.16)"><tspan x="0" y="0">T</tspan></text>
  <image class="cls-17" width="44" height="40" transform="translate(20 58)" xlink:href="3D37BEECB453B22B.png"/>
  <text class="cls-14" transform="translate(40.23 84.55) rotate(-56.3)"><tspan x="0" y="0">F</tspan></text>
  <image class="cls-17" width="47" height="47" transform="translate(29 40)" xlink:href="3D37BEECB453B22D.png"/>
  <text class="cls-14" transform="translate(47.79 72.78) rotate(-48.4)"><tspan x="0" y="0">O</tspan></text>
  <image class="cls-17" width="42" height="43" transform="translate(44 30)" xlink:href="3D37BEECB453B22F.png"/>
  <text class="cls-14" transform="translate(61.13 58.03) rotate(-40.63)"><tspan x="0" y="0">L</tspan></text>
  <image class="cls-17" width="36" height="40" transform="translate(56 24)" xlink:href="3D37BEECB453B22A.png"/>
  <text class="cls-13" transform="translate(71.52 49.26) rotate(-35.68)"><tspan x="0" y="0">I</tspan></text>
  <image class="cls-17" width="44" height="47" transform="translate(64 13)" xlink:href="3D37BEECB453B229.png"/>
  <text class="cls-14" transform="translate(77.44 44.55) rotate(-29.23)"><tspan x="0" y="0">O</tspan></text>
</svg>